# xmcd
#
# Track frame offsets:
#	150
#	13067
#	27955
#	42987
#	56877
#	70607
#	82962
#	96457
#	110250
#	120857
#	132122
#	145302
#	158160
#	171562
#	184900
#	198980
#	212990
#	228262
#	241952
#	254120
#
# Disc length: 3555 seconds
#
# Revision: 1
# Processed by: cddbd v1.4PL0 Copyright (c) Steve Scherf et al.
# Submitted via: audiograbber 1.81.03
#
DISCID=1f0de114
DTITLE=Pete Johnson - Boogie Woogie Master
DYEAR=1946
DGENRE=Blues
TTITLE0=Roll 'Em Pete
TTITLE1=B and O Blues
TTITLE2=Climbin and Screamin'
TTITLE3=Let 'Em Jump
TTITLE4=Baby Look At You
TTITLE5=Boogie Woogie
TTITLE6=Kaycee On My Mind
TTITLE7=Barrelhouse Boogie
TTITLE8=Cuttin' The Boogie
TTITLE9=Foot Pedal Boogie
TTITLE10=Basement Boogie
TTITLE11=Just For You
TTITLE12=Dive Bomber
TTITLE13=Mr Freddy Blues
TTITLE14=Bottomland Boogie
TTITLE15=Rock It Boogie
TTITLE16=Little Bittie Gal's Blues
TTITLE17=Johnson and Turner Blues
TTITLE18=Atomic Boogie
TTITLE19=Back Room Blues
EXTD=
EXTT0=
EXTT1=
EXTT2=
EXTT3=
EXTT4=
EXTT5=
EXTT6=
EXTT7=
EXTT8=
EXTT9=
EXTT10=
EXTT11=
EXTT12=
EXTT13=
EXTT14=
EXTT15=
EXTT16=
EXTT17=
EXTT18=
EXTT19=
PLAYORDER=
